<svg xmlns="http://www.w3.org/2000/svg" viewBox="0 0 2238 1024" width="448" height="205">
	<style>
		tspan { white-space:pre }
		.shp0 { fill: #193b47 } 
	</style>
	<g id="Layer">
		<path id="Layer" class="shp0" d="M1800.5 1022.4C1799.4 1022.1 1797.5 1021.7 1796.3 1021.4C1794.2 1021 1794 1020.4 1794 1014.5L1794 1008L1806.3 1008C1823.9 1008 1825.1 1007 1832.5 986.6L1835.8 977.5L1818.4 929C1808.9 902.3 1799.7 876.8 1798 872.2L1795 863.9L1804.1 864.2L1813.2 864.5L1822.7 892C1827.9 907.1 1834.6 927.8 1837.6 937.9C1840.6 948.1 1843.3 956.6 1843.5 956.8C1844 957.4 1844 957.3 1847.3 944.5C1849.9 934.7 1870.8 864.8 1871.4 864.2C1871.6 864.1 1875.6 864 1880.2 864.2L1888.7 864.5L1868 928.5C1856.7 963.7 1846.1 995.7 1844.6 999.6C1841 1008.7 1835.8 1015.6 1829.6 1019.5C1824.9 1022.3 1824 1022.5 1813.6 1022.7C1807.5 1022.8 1801.6 1022.7 1800.5 1022.4L1800.5 1022.4Z" />
		<path id="Layer" fill-rule="evenodd" class="shp0" d="M1478 864L1493 864L1493 871.9L1500.4 867.9C1522.7 855.9 1545.7 860.6 1555.1 879.1C1559.3 887.6 1560.9 895.6 1561.7 912C1563.3 949.2 1555.3 969.8 1536.4 977C1526.7 980.7 1510.5 980.8 1496.3 977.3L1494 976.8L1494 1021L1478 1021L1478 864ZM1527.1 963.9C1534.2 962.4 1539.8 956.7 1542.5 948.5C1544.3 943.3 1544.5 939.7 1544.5 920C1544.5 896.2 1543.9 892.2 1539.7 885.9C1532.9 875.8 1518.4 874.4 1501 882.1L1494 885.3L1494 961.9L1497.3 962.5C1511.8 965.2 1519.4 965.5 1527.1 963.9Z" />
		<path id="Layer" fill-rule="evenodd" class="shp0" d="M795.4 947C793.6 937 793.6 906 795.4 895.8C798 881.3 805.1 870.5 815.4 865.6C825.1 860.9 841.5 860.1 858.8 863.6L862 864.3L862 818L878 818L878 977L870 977C862.1 977 862 977 862 974.5C862 971.4 862.1 971.4 856 974.5C845.6 979.7 831.3 981.4 820.9 978.6C807 974.9 798.6 964.5 795.4 947ZM859.3 959L862 957.7L862 879.1L857.3 878.3C854.6 877.9 846.4 877.5 839 877.5C826.7 877.5 825.2 877.7 821.8 879.8C812.8 885.4 810.7 893.8 811.2 923.8L811.5 946.5L814.5 952.5C816.2 955.7 818.7 959.3 820.2 960.3C826.9 965.2 840.1 965.9 851.1 962.1C854.1 961.1 857.7 959.7 859.3 959Z" />
		<path id="Layer" fill-rule="evenodd" class="shp0" d="M975 969.8C970.2 963.2 968.7 956.5 969.2 943.6C969.8 927.5 973.7 919.8 984 914.5C991 911 998.1 909.8 1016.3 909.3L1033.2 908.7L1032.5 898.6C1031.8 887.4 1030.1 882.8 1025.7 879.6C1023.1 877.7 1021.5 877.5 1004.2 877.5C993.9 877.5 983.4 877.8 980.8 878.2L976 879L976 866.1L979.8 865.1C1004.5 858.6 1030.7 860.7 1040.3 869.8C1048.3 877.4 1049 882.5 1049 934.2L1049 977L1033 977L1033 970.1L1026.3 973.5C1014.4 979.5 998.3 981.7 988.5 978.6C981.7 976.5 978.1 974.1 975 969.8ZM1027.2 959.9L1033 957L1033 923L1018.5 923C990.4 923 985.6 926.4 985.5 946.5C985.5 957 987.3 961.4 993 964.2C997.4 966.5 1007.1 966.5 1015.3 964.4C1018.6 963.6 1024 961.5 1027.2 959.9Z" />
		<path id="Layer" class="shp0" d="M1139 978.7C1123.8 974.3 1115.2 964.2 1111.6 946.7C1109.5 936.6 1109.4 904.4 1111.5 894.7C1116.8 869.4 1133.2 858.8 1162 861.9C1167.6 862.5 1174.1 863.5 1176.6 864.1L1181 865.2L1181 872.2C1181 878.4 1180.8 879.1 1179.3 878.5C1175.8 877.2 1147.6 876.7 1143.2 877.9C1134.1 880.4 1128.8 888.5 1126.8 903.2C1125.4 914.3 1126.3 940.7 1128.5 947.8C1130.5 954.3 1136.6 961.4 1141.8 963.1C1146.2 964.6 1156.7 964.8 1170.8 963.7L1181.1 962.9L1180.8 969.7L1180.5 976.5L1175 977.8C1166.7 979.7 1144.5 980.3 1139 978.7L1139 978.7Z" />
		<path id="Layer" fill-rule="evenodd" class="shp0" d="M1203.8 952.4C1201.9 947.2 1201.6 944 1201.2 924C1200.8 899.2 1201.6 892.6 1206.6 882.9C1214.7 866.9 1232.3 858.9 1252.8 861.9C1271.7 864.7 1283.4 876.1 1287.6 895.8C1289.5 905 1289.5 936.1 1287.5 945.5C1284.3 960.7 1275.2 972.5 1263.2 977.1C1255.8 979.9 1239 980.7 1231.2 978.5C1217.3 974.6 1209.1 966.8 1203.8 952.4ZM1272.7 914.4C1271.9 893.6 1268.3 884.9 1258.7 879.7C1255.2 877.9 1252.9 877.6 1245 877.6C1234.2 877.6 1229.6 879.3 1224.3 885.3C1218.5 891.9 1217.5 897 1217.5 920.5C1217.5 945.4 1218.6 950.7 1225.5 957.5C1230.8 962.8 1234.5 964 1246.1 963.7C1254.9 963.5 1256.2 963.2 1260.6 960.4C1270.2 954.5 1273.8 940.8 1272.7 914.4Z" />
		<path id="Layer" fill-rule="evenodd" class="shp0" d="M1585.2 964C1582.8 959 1582.5 957.5 1582.5 946.5C1582.5 931.7 1584.3 925.7 1590.5 919.5C1597.9 912 1610.7 909 1634.9 909L1646.3 909L1645.8 898.2C1645.1 884.9 1643.7 881.7 1637.2 878.8C1632.9 876.9 1631.3 876.8 1613 877.3C1602.3 877.6 1592.5 878.2 1591.3 878.6C1589.1 879.2 1589 879 1589 872.7L1589 866.1L1592.8 865.1C1620.7 857.8 1648.4 861.3 1656.5 873C1661.7 880.5 1662 883.5 1662 932.2L1662 977L1647 977L1647 973.4C1647 971.4 1646.7 970 1646.3 970.2C1645.8 970.4 1642.6 972 1639 973.7C1626.2 980.1 1610.9 981.8 1600.2 978.1C1592.5 975.4 1589.3 972.5 1585.2 964ZM1643.5 958.6L1646 957L1646 922.8L1628.8 923.2C1613.1 923.5 1611.1 923.8 1607.2 925.8C1601 929.1 1599.1 933.8 1599 945.8C1599 957.5 1600.6 961.4 1606.4 964.2C1612.1 966.8 1624.9 966.2 1634.2 962.7C1637.9 961.4 1642.1 959.5 1643.5 958.6Z" />
		<path id="Layer" fill-rule="evenodd" class="shp0" d="M372.7 899.8L395.5 824L418.8 824L420.4 828.8C421.3 831.4 431.4 865 443 903.5C454.6 942 464.3 974.3 464.6 975.3C465.1 976.8 464.2 977 456.1 977L447.1 977L446.2 973.8C445.7 972 442.4 960.7 438.9 948.8L432.6 927L381.4 927L366.6 977L358.3 977C353.7 977 350 976.7 350 976.3C350 975.8 360.2 941.4 372.7 899.8ZM419.4 883.4C415.3 869.4 411.1 854.1 410 849.4C407.2 836.5 406.8 836.6 403.5 851.4C402.1 857.2 397.9 872.4 394 885.2C390.2 897.9 387 908.7 387 909.2C387 909.6 396 910 407 910C418 910 427 909.7 427 909.4C427 909.1 423.6 897.3 419.4 883.4Z" />
		<path id="Layer" class="shp0" d="M485 920.5L485 864L493.5 864L502 864L502 868.4L502 872.9L511.5 868.4C524 862.5 534.1 860.4 543.2 861.8C556.2 863.8 563 869.2 566.7 880.4C568.2 884.8 568.4 891.6 568.8 931.3L569.1 977L561.2 977L553.2 977L552.7 933.8C552.3 887 552.1 885.4 546.8 880.3C544.4 878 542.9 877.5 537.3 877.2C529.2 876.7 522.2 878.1 510.8 882.8L502 886.3L502 931.7L502 977L493.5 977L485 977L485 920.5L485 920.5Z" />
		<path id="Layer" class="shp0" d="M636 900.5L636 824L644.5 824L653 824L653 900.5L653 977L644.5 977L636 977L636 900.5Z" />
		<path id="Layer" class="shp0" d="M685 920.5L685 864L693 864L701 864L701 868.5C701 871 701.2 873 701.4 873C701.7 873 705.4 871.3 709.7 869.1C722.2 862.9 727.4 861.5 737.5 861.6C750.5 861.7 759.3 866.1 763.7 874.5C768 882.7 768.3 885.8 768.7 932.3L769.2 977L760.6 977L752.1 977L751.8 932.8C751.5 890.8 751.4 888.3 749.5 884.5C748.3 882.1 746.1 879.8 744 878.7C736.9 875 719 877.9 704.8 885.1L701 887L701 932L701 977L693 977L685 977L685 920.5Z" />
		<path id="Layer" class="shp0" d="M908 920.5L908 864L916 864L924 864L924 868.5C924 871 924.3 873 924.6 873C924.9 873 927 871.7 929.3 870.1C934.9 866.4 942.9 863.5 951.7 862.1C962.8 860.4 962 859.9 962 868.9L962 876.9L956.3 877.5C946.8 878.6 936.9 881 930.8 883.7L925 886.3L925 931.6L925 977L916.5 977L908 977L908 920.5Z" />
		<path id="Layer" class="shp0" d="M1315 920.5L1315 864L1322.9 864L1330.9 864L1331.2 868.4L1331.5 872.8L1338 868.9C1346.4 863.7 1353.7 861.6 1363 861.6C1371.9 861.5 1378.3 864.2 1382.8 869.6L1385.6 873L1395.1 868.1C1406.9 862.1 1415.7 860.2 1425.1 861.9C1434.7 863.6 1439.8 867.2 1444 875.4L1447.5 882.3L1447.8 929.6L1448.1 977L1440.1 977L1432.2 977L1431.8 932.3C1431.4 882.8 1431.3 881.7 1425.1 878.6C1418.5 875.2 1403 877.7 1393.1 883.8L1389.7 885.8L1389.9 931.4L1390.1 977L1381.6 977L1373 977L1373 932.5C1373 893.8 1372.8 887.5 1371.4 884C1369.4 879 1365.8 877 1358.8 877C1351.9 877 1347.1 878.4 1338.3 882.8L1331 886.4L1331 931.7L1331 977L1323 977L1315 977L1315 920.5L1315 920.5Z" />
		<path id="Layer" class="shp0" d="M1691 920.5L1691 864L1699 864L1707 864L1707 868.5C1707 871 1707.2 873 1707.5 873C1707.8 873 1711.5 871.3 1715.8 869.1C1727.3 863.4 1733.4 861.6 1742.5 861.6C1752.9 861.5 1759 863.3 1764.4 868.1C1769.7 872.8 1772.7 879.5 1774 889.2C1774.5 893.2 1775 914.6 1775 936.8L1775 977L1766.5 977L1758.1 977L1757.8 932.3C1757.5 882.6 1757.6 883.2 1750.7 878.9C1748 877.2 1746.2 876.9 1739 877.3C1730.5 877.7 1723.6 879.6 1712.5 884.4L1707 886.9L1707 931.9L1707 977L1699 977L1691 977L1691 920.5L1691 920.5Z" />
		<path id="Layer" class="shp0" d="M1 592.5L1 584L1119 584L2237 584L2237 592.5L2237 601L1119 601L1 601L1 592.5Z" />
		<path id="Layer" class="shp0" d="M1229.7 362.8C1224.9 362.3 1216.8 360.9 1211.7 359.6C1172.7 349.7 1151.9 327 1148.5 290.7L1147.8 282.9L1161.6 283.2L1175.5 283.5L1176.2 291.8C1178 313.6 1193.8 328.3 1221 333.6C1237.8 336.9 1270.4 336.3 1285.4 332.4C1304.4 327.5 1317.7 314.3 1321 297C1325.3 274.6 1316.2 253.3 1298.7 244.8C1295.8 243.3 1271.1 235.8 1243.9 228C1216.7 220.2 1191.8 212.6 1188.5 211.1C1171.6 203.2 1158.8 187.4 1155.1 170C1153.2 161.3 1153.6 144.7 1155.9 135.8C1162.8 109 1184.8 90.4 1216.9 84.4C1247.1 78.7 1283.3 82.2 1305.4 92.9C1321.8 100.8 1332.1 110.8 1339.2 125.6C1343.2 133.9 1347 148.9 1347 156.8L1347 161L1334.1 161C1320 161 1320 161 1320 154.7C1320 145.6 1314.6 133.5 1307.5 126.5C1292.4 111.4 1259.5 104.6 1225.5 109.5C1199 113.2 1184.5 125 1180.9 145.5C1179.4 154.1 1180.3 162.9 1183.5 169.7C1186.6 176.5 1194.9 184.7 1202.3 188.3C1205.5 189.9 1229.4 197 1255.3 204.2C1312.4 219.9 1317.1 221.8 1329.6 234.4C1339.1 244 1345.1 254.8 1347.6 267C1349.9 277.8 1349.1 299.9 1346 309.5C1342.2 321.6 1337.3 329.8 1328.5 338.6C1321.7 345.4 1318.8 347.5 1310 351.9C1290.1 361.7 1259.5 365.9 1229.7 362.8L1229.7 362.8Z" />
		<path id="Layer" fill-rule="evenodd" class="shp0" d="M1442.5 331.2C1432.6 318.7 1426.2 302 1424 283.4C1423.2 276.6 1423 255.5 1423.3 216.5C1423.6 168.7 1424 158.5 1425.3 153C1434.7 114.6 1458.5 92 1498.5 83.4C1509.6 81 1534.4 81 1546.3 83.4C1584 90.8 1609 113.7 1619.3 149.9C1621.4 157.4 1621.5 158.7 1621.8 259.3L1622.1 361L1605.2 361L1602 352.8C1600.2 348.2 1598.1 343.3 1597.3 341.8L1596 339.1L1589.2 344.2C1576.4 353.9 1560 360.4 1541.5 362.9C1532.6 364.2 1511.2 364.1 1502.5 362.9C1477.8 359.3 1455.2 347.3 1442.5 331.2ZM1561.6 329.5C1576.9 322.1 1585.9 311.3 1591.1 294C1593.4 286.6 1593.4 285.6 1593.8 226.1C1594.1 157.3 1594 155.8 1586.8 141C1581.2 129.5 1573.5 121.8 1562 116.2C1548.4 109.5 1543.2 108.5 1522.5 108.5C1506.7 108.5 1503.5 108.8 1496.5 110.8C1474.3 117.2 1461 129.9 1453.9 151.5C1451.6 158.5 1451.5 158.9 1451.2 217C1450.9 277.8 1451.2 285 1455.1 297.5C1461 316.8 1478.7 331.3 1501.5 335.5C1511.3 337.3 1532.9 337.3 1543.6 335.5C1549.8 334.4 1555.2 332.6 1561.6 329.5Z" />
		<path id="Layer" class="shp0" d="M1991.8 363C1965.7 358.3 1947.4 343.4 1939.5 320.3C1933.2 302.1 1933.6 313.1 1933.3 149.3L1932.9 0L1946.5 0L1960 0L1960 42.5L1960 85L2003.5 85L2047 85L2047 97L2047 109L2003.5 109L1959.9 109L1960.2 204.3L1960.5 299.5L1963.1 307.7C1969.8 329.1 1983.1 338 2008.3 338C2025.1 338 2036.7 334.8 2048.2 326.9C2054 323 2054 323 2054.9 325.2C2055.4 326.5 2057.6 331.8 2059.7 337L2063.7 346.5L2059.6 349.7C2053.9 354.1 2044 358.5 2034.5 361.1C2025.6 363.4 2000.4 364.6 1991.8 363L1991.8 363Z" />
		<path id="Layer" class="shp0" d="M174.3 261.3C174.6 163.3 174.7 160.2 176.7 151.5C180.9 133.3 186.8 121.6 197.3 110.3C215.7 90.7 239.5 81.9 274 81.9C302.2 81.9 321 87 338.6 99.1C346.7 104.7 354.6 112.8 358.7 119.8C360.1 122.1 361.3 124 361.5 124C361.6 124 363 122.1 364.5 119.8C377.2 100.6 397.7 88.2 424.5 83.5C435.4 81.6 459.4 81.3 470.5 83C495 86.7 516 97.6 529 113.3C535.7 121.4 542.4 135.1 545.8 147.5L548.5 157.5L548.8 259.8L549.1 362L535.5 362L522 362L522 264.3C522 172.3 521.9 166 520.1 157.3C517.4 144.1 513.1 135.9 504.6 127.4C496.3 119.1 484.9 113 473 110.4C462.6 108.1 435.2 108.1 425.2 110.3C405.7 114.6 389.7 126.6 382.4 142.5C376.3 155.8 376.6 150 376.2 260.8L375.9 362L361.5 362L347 362L347 263.5C347 154.4 347.1 156.3 340.6 142.5C336 132.7 330.4 126.1 321.9 120.5C308.2 111.4 288.3 107 266.5 108.4C245.2 109.8 230.4 115.5 219 127C211.5 134.5 206.9 142.5 203.7 153.7C201.5 161.5 201.5 161.9 201.2 261.8L200.9 362L187.4 362L173.9 362L174.3 261.3L174.3 261.3Z" />
		<path id="Layer" class="shp0" d="M876 223.5L876 85L882.4 85L888.7 85L895.4 98C899.1 105.1 902.4 111.2 902.9 111.4C903.3 111.7 905.2 110.3 907.1 108.4C919.7 95.2 944.3 84.5 967 82.2C978.5 81 996.5 82.4 1008.6 85.5C1037.2 92.7 1057.7 110.5 1067 135.8C1073.7 154.1 1073.3 148.1 1073.7 260.3L1074.1 362L1060.5 362L1047 362L1047 263.8C1047 171.4 1046.9 165 1045.1 156.3C1041.2 137.5 1031.6 124.6 1015.5 116.3C1003.1 110 996.3 108.6 977 108.5C962.8 108.5 959.4 108.8 952.7 110.8C928.7 117.7 914.5 130.7 905.6 154C903.5 159.5 903.5 160.4 903.2 260.8L902.9 362L889.5 362L876 362L876 223.5L876 223.5Z" />
		<path id="Layer" class="shp0" d="M632 349L632 337L670.5 337L709 337L709 223L709 109L670.5 109L632 109L632 97L632 85L684.5 85L737 85L737 211L737 337L764.5 337L792 337L792 349L792 361L712 361L632 361L632 349Z" />
		<path id="Layer" class="shp0" d="M1708 349L1708 337L1745 337L1782 337L1782 223L1782 109L1745 109L1708 109L1708 97L1708 85L1759 85L1810 85L1810 211L1810 337L1838.5 337L1867 337L1867 349L1867 361L1787.5 361L1708 361L1708 349Z" />
	</g>
</svg>