<?xml version="1.0" encoding="utf-8"?>
<!DOCTYPE svg PUBLIC "-//W3C//DTD SVG 20010904//EN" "http://www.w3.org/TR/2001/REC-SVG-20010904/DTD/svg10.dtd">
<svg version="1.0" xmlns="http://www.w3.org/2000/svg" width="300px" height="60px" viewBox="0 0 300 60" preserveAspectRatio="xMidYMid meet">
 <g fill="#fcfdfd">
  <path d="M0 30 l0 -30 150 0 150 0 0 30 0 30 -150 0 -150 0 0 -30z m91.3 26.3 c-2.9 -0.2 -7.7 -0.2 -10.5 0 -2.9 0.2 -0.6 0.3 5.2 0.3 5.8 0 8.1 -0.1 5.3 -0.3z m82 0 c-1.3 -0.2 -3.3 -0.2 -4.5 0 -1.3 0.2 -0.3 0.4 2.2 0.4 2.5 0 3.5 -0.2 2.3 -0.4z m42.5 0 c-1 -0.2 -2.8 -0.2 -4 0 -1.3 0.2 -0.5 0.4 1.7 0.4 2.2 0.1 3.2 -0.1 2.3 -0.4z m44.5 0 c-2.9 -0.2 -7.7 -0.2 -10.5 0 -2.9 0.2 -0.6 0.3 5.2 0.3 5.8 0 8.1 -0.1 5.3 -0.3z"/>
 </g>
 <g fill="#1c3e49">
  <path d="M1 42 c0 -19 1 -22.9 6.7 -26.1 6.2 -3.6 15.7 -3.2 21.2 0.8 2.6 1.9 2.6 1.9 5.9 -0.3 9.6 -6.5 23.5 -2.3 26.1 8 0.6 2.5 1.1 11.3 1.1 19.5 l0 15.1 -3 0 -3 0 -0.1 -15.2 c0 -18.3 -0.9 -21.8 -5.9 -23.5 -3.8 -1.3 -9.1 -0.9 -12.1 1 -3 1.9 -3.9 7.1 -3.9 23 l0 14.7 -3 0 -3 0 0 -16.8 c0 -18.8 -0.4 -20.2 -6.6 -22.2 -2.8 -1 -4.6 -1 -7.5 -0.1 -6.5 1.9 -6.9 3.4 -6.9 22.3 l0 16.8 -3 0 -3 0 0 -17z"/>
  <path d="M73 56 l0 -3 6 0 6 0 0 -16.5 0 -16.4 -5.7 -0.3 c-5.5 -0.3 -5.8 -0.4 -6.1 -3 l-0.3 -2.8 9 0 9.1 0 0 19.4 0 19.5 4.3 0.3 c3.8 0.3 4.2 0.6 4.5 3.1 l0.3 2.7 -13.5 0 -13.6 0 0 -3z"/>
  <path d="M111 36.5 c0 -20.2 0.2 -22.5 1.6 -22.5 0.9 0 2.2 0.7 2.9 1.6 1 1.5 1.4 1.5 4.6 -0.2 4.8 -2.5 12.7 -2.3 17.2 0.5 5.9 3.6 6.7 6.6 6.7 26 l0 17.1 -3 0 -3 0 0 -16.9 c0 -16.4 -0.1 -17.1 -2.4 -19.7 -2 -2.4 -3.1 -2.8 -7.6 -2.8 -4.7 0 -5.6 0.4 -8.1 3.2 l-2.9 3.2 0 16.5 0 16.5 -3 0 -3 0 0 -22.5z"/>
  <path d="M161.5 57.6 c-4.2 -1.8 -6.5 -4.7 -7.2 -9 -0.5 -3.5 -0.5 -3.6 2.6 -3.6 2.4 0 3.1 0.4 3.1 1.9 0 3.5 4.7 6.1 10.9 6.1 7.2 0 10.1 -1.9 10.1 -6.4 0 -4.5 -2.1 -6 -12 -8.7 -10.7 -2.9 -14 -5.8 -14 -12.1 0 -7.9 5.4 -12.1 15.5 -12.1 9.3 0 15.1 3.8 16.2 10.7 0.5 3.4 0.4 3.6 -2.4 3.6 -2.4 0 -3 -0.5 -3.8 -3.2 -2.3 -7.8 -19.5 -7.2 -19.5 0.6 0 3.3 2.6 5.1 10.5 7.1 12.5 3.2 15.5 5.8 15.5 13.3 0 5.4 -2.4 9.7 -6.6 11.7 -3.9 1.9 -14.8 1.9 -18.9 0.1z"/>
  <path d="M203.9 56.7 c-5.5 -3.7 -6.9 -7.6 -6.9 -20 0 -12 1.2 -16.1 5.5 -19.5 8.5 -6.7 21.3 -4.2 26.1 5 1 2 1.4 7.1 1.4 19.8 0 16.4 -0.1 17 -2 17 -1.1 0 -2.3 -0.6 -2.6 -1.4 -0.5 -1.2 -0.9 -1.2 -3.2 0 -4.4 2.3 -14.3 1.8 -18.3 -0.9z m17.2 -5.6 c2.2 -1.8 2.4 -2.7 2.7 -13.3 0.3 -13.1 -0.5 -15.5 -6.1 -17.7 -3 -1.1 -4.5 -1.2 -7.7 -0.2 -5.6 1.7 -7 4.8 -7 16 0 14.1 1.8 17.1 10.6 17.1 3.6 0 5.9 -0.6 7.5 -1.9z"/>
  <path d="M242 56 l0 -3 6 0 6 0 -0.2 -16.7 -0.3 -16.8 -5.7 -0.3 c-5.4 -0.3 -5.8 -0.5 -5.8 -2.7 0 -2.5 0.1 -2.5 9 -2.5 l9 0 0 19.4 0 19.5 4.3 0.3 c3.8 0.3 4.2 0.6 4.5 3.1 l0.3 2.7 -13.5 0 -13.6 0 0 -3z"/>
  <path d="M281.7 57 c-1.5 -1.2 -3.1 -3.8 -3.7 -5.8 -0.5 -2 -1 -14.1 -1 -26.9 l0 -23.3 3 0 3 0 0 6.5 0 6.5 7.1 0 7 0 -0.3 2.8 c-0.3 2.6 -0.5 2.7 -7 3 l-6.8 0.3 0 14.5 c0 14.1 0.1 14.6 2.5 16.9 2.8 2.9 4.8 3.1 8.9 1 2.4 -1.3 3.1 -1.3 3.8 -0.3 1.4 2.2 0.9 4.7 -1.1 5.8 -3.5 1.8 -12.5 1.2 -15.4 -1z"/>
 </g>
 <g fill="#5c757c">
 </g>
 <g fill="#abb8bc">
 </g>
</svg>